#!OML:ASF F:\VICON\USERDATA\INSTALL\rory3\rory3.ASF
:FULLY-SPECIFIED
:DEGREES
45
root 0.09196781810415985 16.94540131133484 12.527469722858786 2.604896850951988 -4.973977467915335 -4.118173274473299
lfemur -25.653236326676286 4.761060772458081 -14.531435426292425
ltibia 85.78535728703258
lfoot 0.4308925798831982 -10.113516589590642
ltoes -7.33934635718001
rfemur -13.358932977157526 5.3678205552912415 33.05210539276482
rtibia 39.77714037769732
rfoot -14.893078005725956 -9.090936131637585
rtoes -1.828571342221771
lowerback 15.94515489615971 1.2901821311553954 4.128629833562743
upperback 0.2667419554357989 1.9907279234810256 2.937396124964451
thorax -8.460199340733572 1.313210974475425 0.11920248689417758
lowerneck -19.7721150548358 -3.485518966944449 -2.037875198188238
upperneck 13.4039114824167 -4.746816987682094 2.3426806944046996
head 7.341135329185825 -2.1510431232103486 0.5775881245571036
lclavicle 3.0724827264545893e-16 -4.306722120656491e-16
lhumerus -51.84647150350425 -11.464389664782898 99.0080047404893
lradius 109.48627096802159
lwrist 31.904324411112828
lhand -26.290092612300956 3.8214149023559565
lfingers 7.125020000000001
lthumb 0.3680953238524853 33.67208174939342
rclavicle 3.072874365724181e-16 -4.306498568285232e-16
rhumerus -43.468402399188555 5.9434576043795735 -95.45874918237318
rradius 103.61534750953676
rwrist -19.201775351124745
rhand -18.729236166030784 37.62000353254371
rfingers 7.125020000000001
rthumb 7.555597861622241 7.66023650646263
46
root 0.10465116848575376 16.986945438949117 12.825949125900209 2.787818915780538 -4.542775185424266 -4.341376757589115
lfemur -28.99049761500939 5.051719275155733 -14.312829302586456
ltibia 82.88733550155783
lfoot -0.16641837135393 -10.21992557901182
ltoes -9.37243055005663
rfemur -13.230943755144548 4.578238512499371 32.51394666993727
rtibia 39.52157661029035
rfoot -13.815515203862185 -10.003169653484562
rtoes -1.2918141419449969
lowerback 15.783200717044986 1.485613558258335 4.549710331353529
upperback 0.22359479327026277 2.40308175169141 2.976085876053129
thorax -8.471049385995212 1.4384839070889033 -0.2611687848013342
lowerneck -19.68738493009816 -3.7140362788126033 -1.9958348045557681
upperneck 13.228923682069547 -5.145222275353504 2.3876993289421957
head 7.331594218678079 -2.2731719583113508 0.550284886090155
lclavicle 3.0724827264545893e-16 -4.306722120656491e-16
lhumerus -53.438149111096024 -11.56740209928137 99.15901820053007
lradius 109.7439149000573
lwrist 32.10112442441024
lhand -26.293043890434102 3.877883166534719
lfingers 7.125020000000001
lthumb 0.3438094309738857 33.832879217204045
rclavicle 3.0728743657241833e-16 -4.3064985682852306e-16
rhumerus -41.00336102345728 6.6652602655408355 -95.52700799584355
rradius 104.33407487775334
rwrist -19.25546685625846
rhand -18.692976683385744 37.61523711031923
rfingers 7.125020000000001
rthumb 7.594867300630365 7.609487940191171
47
root 0.13597182497987587 17.09558004932778 13.903002077804462 2.979854133646675 -3.8681115673489943 -4.512677881618762
lfemur -32.56076504833458 4.906735769853873 -14.756102363775007
ltibia 78.3463426549439
lfoot -0.40974019206755674 -10.625260149130343
ltoes -11.069605221174251
rfemur -11.714416506238422 4.097303256917604 32.28273369262986
rtibia 39.5090126804032
rfoot -12.129768345731224 -10.266685566934708
rtoes -0.9200976879395442
lowerback 15.541325170849959 1.6440511079106939 4.990737812853596
upperback 0.17260461591746357 2.883332241522247 2.9844848711622163
thorax -8.464124527427217 1.5458777642748762 -0.6346183605847261
lowerneck -19.45101149229986 -3.846376206840986 -1.9329663122253558
upperneck 13.168695676916046 -5.530683088776678 2.4483422552922205
head 7.326574282405385 -2.393535388157165 0.5290924419285796
lclavicle 3.0724827264545893e-16 -4.306722120656491e-16
lhumerus -54.58609231944724 -11.824545395239452 99.31142377791475
lradius 110.12998736589928
lwrist 32.31091092701936
lhand -26.333006934303757 3.7873306129658193
lfingers 7.125020000000001
lthumb 0.35721942883557967 33.90237834992025
rclavicle 3.0728743657241877e-16 -4.306498568285228e-16
rhumerus -38.796405337184936 7.353692064099979 -95.50203478273859
rradius 104.7891711223553
rwrist -19.23025216362863
rhand -18.72025230223834 37.528598420429375
rfingers 7.125020000000001
rthumb 7.582918884983411 7.460925755660845
48
root 0.17460961248013546 17.253436511955936 15.215795855988404 3.137498523599693 -3.0400450373449517 -4.716197478941416
lfemur -33.94321189727587 4.634729947993814 -15.241158697563833
ltibia 72.70070074660902
lfoot -0.555312494585432 -10.423068686907904
ltoes -12.009571501188141
rfemur -9.988182879276481 3.416884450287611 31.766034846134648
rtibia 39.97086924957081
rfoot -10.482441216503481 -9.997196697319524
rtoes -0.6714219824490706
lowerback 15.157920121157966 1.715855260055765 5.404488338602521
upperback 0.08515350912286934 3.403743700393326 2.946324402590273
thorax -8.44125363134197 1.635605275544472 -0.9234747334143083
lowerneck -19.3590452944388 -4.128265611116411 -1.9726107375505375
upperneck 13.185038446027791 -5.832135757864556 2.5336286260549077
head 7.320116246845648 -2.496955805613669 0.521006794705274
lclavicle 3.0724827264545893e-16 -4.306722120656491e-16
lhumerus -55.210642651614904 -11.899893588041667 99.30580308947897
lradius 110.28960670269711
lwrist 32.27676626139921
lhand -26.298023413798013 3.7440443880934504
lfingers 7.125020000000001
lthumb 0.4047384780645207 33.890800439387576
rclavicle 3.072874365724192e-16 -4.3064985682852257e-16
rhumerus -36.788568205996455 8.025580819460162 -95.384433952537
rradius 104.82603351000265
rwrist -19.262853719559068
rhand -18.72753435958947 37.45334158415322
rfingers 7.125020000000001
rthumb 7.610498628330787 7.393866220386938
49
root 0.21345016395562622 17.43353420029564 16.136879505496317 3.2127587476330897 -2.1949474966623868 -4.78541345590243
lfemur -35.60126077834363 4.0592765127013255 -15.87918330445347
ltibia 66.78031715192157
lfoot -0.10272694897557777 -10.278310351307107
ltoes -12.47311592661266
rfemur -10.078257306040864 2.9790909317604912 31.12967234477381
rtibia 40.410982486932085
rfoot -8.412941470402679 -9.166672862012973
rtoes -0.26143004036968165
lowerback 14.638365434419525 1.7520116882065873 5.59064540371331
upperback -0.03665872110268131 3.798600314729603 2.835230988357952
thorax -8.403641821407339 1.6953377559560443 -1.0922564122046539
lowerneck -19.146647099164518 -4.335049330073005 -2.0011728628992813
upperneck 13.252470154437294 -6.096605919350488 2.596266540918267
head 7.323932423280193 -2.5763895811882334 0.5216251471387297
lclavicle 3.0724827264545893e-16 -4.306722120656491e-16
lhumerus -55.40459047234552 -11.728875496105065 99.19623357468973
lradius 110.25192004311148
lwrist 32.161178473421025
lhand -26.216139300972603 3.708638988013636
lfingers 7.125020000000001
lthumb 0.5124458922293874 33.8172103448911
rclavicle 3.0728743657241857e-16 -4.306498568285229e-16
rhumerus -35.03434429061161 8.660337319246377 -95.20458952644793
rradius 104.5693696258005
rwrist -19.341473794983095
rhand -18.730641799832355 37.40686521141054
rfingers 7.125020000000001
rthumb 7.6447681532259315 7.395149918876652
50
root 0.24875014592390549 17.61473661777364 16.514806632783863 3.1986379355165844 -1.3963216044719013 -4.79209652192437
lfemur -33.80904096547863 3.525727629247212 -16.087547860971107
ltibia 60.71604288696412
lfoot -0.27125039447045474 -10.230288673387644
ltoes -12.379513758373026
rfemur -7.902152099834094 2.8727186417332176 30.91404150304797
rtibia 40.625547128725415
rfoot -6.461273293306667 -8.200650641903888
rtoes -0.2794504361325125
lowerback 14.013624738893213 1.7619242507203665 5.655344397409182
upperback -0.21044113535644982 3.9765389183007986 2.655130398128045
thorax -8.337003966804264 1.7238839851594183 -1.2336171194360728
lowerneck -18.742401365431736 -4.47326247140857 -2.0344367549996907
upperneck 13.387120157194904 -6.298968327673193 2.6369612334304144
head 7.325382145068212 -2.6587577496831574 0.5215241948354454
lclavicle 3.0724827264545893e-16 -4.306722120656491e-16
lhumerus -55.14581024949997 -11.30059264613103 99.00130713377237
lradius 110.31725889981858
lwrist 32.061257057435114
lhand -26.099395953445004 3.667007281028753
lfingers 7.125020000000001
lthumb 0.5728486319724747 33.64778768168593
rclavicle 3.072874365724184e-16 -4.3064985682852306e-16
rhumerus -33.6443031348911 9.214984435104524 -94.9806512413498
rradius 104.1443935831798
rwrist -19.456867011097028
rhand -18.649353760727383 37.511422556376345
rfingers 7.125020000000001
rthumb 7.698906164163323 7.428501394393545
